<?xml version="1.0" encoding="UTF-8"?>
<svg version="1.1" xmlns="http://www.w3.org/2000/svg" width="559" height="447">
<path d="M0 0 C0.70108887 0.17660156 1.40217773 0.35320312 2.12451172 0.53515625 C25.20295774 6.53677477 46.04539162 17.60034503 64.37744141 32.67431641 C65.92783277 33.94103701 67.50057706 35.18025057 69.07421875 36.41796875 C74.70016054 40.87727596 79.51751358 45.40368362 84 51 C84.92558639 52.13817933 85.85138699 53.27618447 86.77734375 54.4140625 C118.43511555 93.50135777 139.54697401 133.66212451 134.5390625 185.4609375 C130.77873665 217.58026321 116.71032067 246.2529379 95 270 C94.30052246 270.76739502 94.30052246 270.76739502 93.58691406 271.55029297 C67.1760393 300.12733076 33.51950296 311.03460048 -3.8125 317.8125 C-4.94969482 318.0194751 -6.08688965 318.2264502 -7.25854492 318.43969727 C-52.17232658 326.27560643 -96.32802712 316.92922827 -134.07714844 291.36816406 C-139.7440657 287.33598982 -144.91607316 282.73440687 -150 278 C-150.53109375 277.50741699 -151.0621875 277.01483398 -151.609375 276.50732422 C-182.92869857 247.13576799 -200.54521621 205.8615829 -202.23828125 163.16015625 C-203.14817174 121.5704082 -189.32280606 80.67396932 -160.98828125 49.80859375 C-159.35583268 48.16906297 -157.69383424 46.57565976 -156 45 C-155.175 44.175 -154.35 43.35 -153.5 42.5 C-152.675 41.675 -151.85 40.85 -151 40 C-150.55914062 39.51273438 -150.11828125 39.02546875 -149.6640625 38.5234375 C-139.46234744 27.59672746 -126.15977725 19.81754872 -113 13 C-111.95714844 12.45730469 -110.91429687 11.91460937 -109.83984375 11.35546875 C-95.08216375 4.13848717 -79.22432723 -0.60865925 -63 -3 C-61.92548584 -3.17055908 -60.85097168 -3.34111816 -59.74389648 -3.5168457 C-40.24306608 -6.03345107 -18.985422 -4.91837653 0 0 Z M-181 146 C-182.23703035 149.82890346 -182.15102681 153.64661688 -182.125 157.625 C-182.12306641 158.33269531 -182.12113281 159.04039062 -182.11914062 159.76953125 C-182.07445558 165.22110697 -181.72777 170.59370859 -181 176 C-178.15626326 177.33252505 -178.15626326 177.33252505 -176.171875 176.1328125 C-175.09679687 175.57207031 -175.09679687 175.57207031 -174 175 C-172.09514151 174.56901247 -170.17643418 174.19607236 -168.25 173.875 C-166.5175 173.58625 -164.785 173.2975 -163 173 C-163 167.06 -163 161.12 -163 155 C-164.8975 154.2575 -166.795 153.515 -168.75 152.75 C-173.11674137 151.04127512 -175.7856595 149.38808863 -179 146 C-179.66 146 -180.32 146 -181 146 Z M-158.25 229.5 C-159.4875 229.665 -160.725 229.83 -162 230 C-153.60018391 249.58483436 -137.43516371 264.42012365 -120 276 C-120 272.28808245 -120.66100466 272.01608803 -123.1875 269.4375 C-134.26372435 257.32042478 -142.8017523 243.69409738 -150 229 C-152.88435938 229 -155.42179168 229.12290556 -158.25 229.5 Z " fill="#A2CB53" transform="translate(313,65)"/>
<path d="M0 0 C3.16535512 -0.02021914 6.33069327 -0.03226779 9.49609375 -0.04296875 C10.82562073 -0.0516095 10.82562073 -0.0516095 12.18200684 -0.0604248 C37.49129122 -0.12441058 60.73733709 6.73078355 81 22 C81.99 22.66 82.98 23.32 84 24 C84 24.66 84 25.32 84 26 C84.56460938 26.24105469 85.12921875 26.48210937 85.7109375 26.73046875 C101.02928355 35.22613849 112.40741565 56.12546768 117.3125 72.0625 C117.59738281 73.08472656 117.88226563 74.10695313 118.17578125 75.16015625 C118.94132072 77.98251452 118.94132072 77.98251452 120.03515625 80.5390625 C126.3525091 96.65214873 124.32150745 118.67877186 120 135 C119.79503906 135.94359375 119.59007812 136.8871875 119.37890625 137.859375 C114.07281578 160.66567689 96.73427945 183.13914104 77.75 196.375 C75 198 75 198 72.6015625 198.90234375 C69.89664337 200.04360843 67.94944169 201.40542804 65.625 203.1875 C59.19596341 207.7975427 52.22695738 210.86777468 45 214 C44.27039063 214.33 43.54078125 214.66 42.7890625 215 C23.08917513 223.25846807 -0.90339519 221.88084279 -20.625 214.75 C-37.79683532 207.67553973 -51.05504646 198.07244062 -63 184 C-63.87205078 183.06607422 -63.87205078 183.06607422 -64.76171875 182.11328125 C-66.1875 180.5625 -66.1875 180.5625 -68 178 C-67.86081868 175.04693554 -67.09360786 174.09021369 -64.953125 172.02734375 C-64.06109375 171.33769531 -63.1690625 170.64804687 -62.25 169.9375 C-61.25484375 169.15246094 -60.2596875 168.36742187 -59.234375 167.55859375 C-58.70521484 167.14335449 -58.17605469 166.72811523 -57.63085938 166.30029297 C-54.86710197 164.0967343 -52.18754207 161.79536683 -49.5 159.5 C-45.55438185 156.14451614 -41.58354634 152.82775496 -37.5625 149.5625 C-32.70474628 145.60982994 -27.95317233 141.54451931 -23.20922852 137.45703125 C-18.69653432 133.57674852 -14.12282172 129.78397574 -9.5 126.03515625 C-8.675 125.36355469 -7.85 124.69195312 -7 124 C-5.97437958 123.37003616 -4.94875916 122.74007233 -3.89205933 122.09101868 C-1.79745774 120.32244494 -1.08051523 119.33871514 -0.44034195 116.64560509 C-0.2191905 113.58609705 -0.19280842 110.57600863 -0.22705078 107.50854492 C-0.21642105 106.34713989 -0.20579132 105.18573486 -0.19483948 103.98913574 C-0.16674755 100.15247491 -0.18086012 96.31718575 -0.1953125 92.48046875 C-0.18406484 89.81955398 -0.17047883 87.15875433 -0.15377808 84.49787903 C-0.11945298 78.21161506 -0.115498 71.92571495 -0.12250316 65.63937598 C-0.12899784 58.48088202 -0.10156149 51.32264324 -0.07130075 44.16422498 C-0.00982783 29.44281724 0.00911867 14.72153734 0 0 Z " fill="#8CAD45" transform="translate(265,101)"/>
<path d="M0 0 C0.70108887 0.17660156 1.40217773 0.35320312 2.12451172 0.53515625 C25.20295774 6.53677477 46.04539162 17.60034503 64.37744141 32.67431641 C65.92783277 33.94103701 67.50057706 35.18025057 69.07421875 36.41796875 C74.70016054 40.87727596 79.51751358 45.40368362 84 51 C84.92558639 52.13817933 85.85138699 53.27618447 86.77734375 54.4140625 C118.43511555 93.50135777 139.54697401 133.66212451 134.5390625 185.4609375 C130.77873665 217.58026321 116.71032067 246.2529379 95 270 C94.30052246 270.76739502 94.30052246 270.76739502 93.58691406 271.55029297 C67.1760393 300.12733076 33.51950296 311.03460048 -3.8125 317.8125 C-4.94969482 318.0194751 -6.08688965 318.2264502 -7.25854492 318.43969727 C-52.17232658 326.27560643 -96.32802712 316.92922827 -134.07714844 291.36816406 C-139.7440657 287.33598982 -144.91607316 282.73440687 -150 278 C-150.53109375 277.50741699 -151.0621875 277.01483398 -151.609375 276.50732422 C-182.92869857 247.13576799 -200.54521621 205.8615829 -202.23828125 163.16015625 C-203.14817174 121.5704082 -189.32280606 80.67396932 -160.98828125 49.80859375 C-159.35583268 48.16906297 -157.69383424 46.57565976 -156 45 C-155.175 44.175 -154.35 43.35 -153.5 42.5 C-152.675 41.675 -151.85 40.85 -151 40 C-150.55914062 39.51273438 -150.11828125 39.02546875 -149.6640625 38.5234375 C-139.46234744 27.59672746 -126.15977725 19.81754872 -113 13 C-111.95714844 12.45730469 -110.91429687 11.91460937 -109.83984375 11.35546875 C-95.08216375 4.13848717 -79.22432723 -0.60865925 -63 -3 C-61.92548584 -3.17055908 -60.85097168 -3.34111816 -59.74389648 -3.5168457 C-40.24306608 -6.03345107 -18.985422 -4.91837653 0 0 Z M-131 49 C-131.83660156 49.71800781 -132.67320312 50.43601563 -133.53515625 51.17578125 C-161.01525748 75.08814136 -178.19338975 107.99233441 -181.75 144.25 C-181.85967728 146.16533977 -181.94166062 148.08240983 -182 150 C-182.03996094 151.18078125 -182.07992187 152.3615625 -182.12109375 153.578125 C-182.79829887 193.57306287 -168.5405707 230.83451682 -140.6875 259.75 C-128.17057755 272.33676906 -112.40442513 283.27094854 -96 290.0625 C-95.18966309 290.39975098 -94.37932617 290.73700195 -93.54443359 291.08447266 C-87.98937671 293.33425456 -82.39393321 295.25248754 -76.625 296.875 C-75.94953125 297.06586182 -75.2740625 297.25672363 -74.578125 297.45336914 C-63.25646896 300.44509506 -51.99230106 301.36364802 -40.3125 301.3125 C-38.99830078 301.30831055 -37.68410156 301.30412109 -36.33007812 301.29980469 C-26.25829548 301.18326757 -16.79203846 300.31995988 -7 298 C-5.25396484 297.59974609 -5.25396484 297.59974609 -3.47265625 297.19140625 C28.34324045 288.99143287 56.42446452 269.98335426 75.83789062 243.57958984 C76.84995068 242.2039536 77.88406964 240.84460004 78.921875 239.48828125 C98.92558079 212.46492641 107.84883195 174.53529325 103.46875 141.28125 C102.92070906 137.8128211 102.2240806 134.38670952 101.44433594 130.96337891 C101.00636685 129.02813306 100.61607166 127.08229733 100.2265625 125.13671875 C95.29682214 102.63629828 84.04623655 82.3173666 69 65 C67.78957031 63.57300781 67.78957031 63.57300781 66.5546875 62.1171875 C50.47487995 43.57618492 28.45691073 30.31144487 5.3125 22.5 C4.55815674 22.24460449 3.80381348 21.98920898 3.02661133 21.72607422 C-0.73843062 20.51680784 -4.03604044 19.68726157 -8 20 C-8 19.34 -8 18.68 -8 18 C-51.72815628 12.16262991 -97.15514253 18.40424884 -131 49 Z " fill="#2C2E2C" transform="translate(313,65)"/>
<path d="M0 0 C5.94 0 11.88 0 18 0 C18.25503064 16.40308075 18.45113416 32.80533957 18.56993389 49.20992184 C18.62657039 56.82756628 18.70372906 64.44395369 18.82983398 72.06079102 C18.93974255 78.7025422 19.01050161 85.34338291 19.03497344 91.98601824 C19.04927263 95.50134179 19.08267374 99.01406169 19.16303062 102.52854729 C19.2521751 106.45953674 19.25387279 110.38801879 19.2487793 114.32006836 C19.28832733 115.47525467 19.32787537 116.63044098 19.36862183 117.82063293 C19.29791281 122.87537389 19.0586521 125.82071005 15.60491371 129.66801643 C12.82515192 131.95681008 9.98731475 133.99342461 7 136 C5.6784121 137.0761753 4.3680232 138.1666874 3.08203125 139.28515625 C2.25541992 139.98608398 2.25541992 139.98608398 1.41210938 140.70117188 C0.88423828 141.15041016 0.35636719 141.59964844 -0.1875 142.0625 C-0.75791016 142.54654297 -1.32832031 143.03058594 -1.91601562 143.52929688 C-3.27807818 144.68533316 -4.63915805 145.84252712 -6 147 C-0.34672852 153.57312582 10.64703861 156.13138721 19 157 C32.92543195 158.03092606 44.67891036 155.52292981 57 149 C57.66 149.33 58.32 149.66 59 150 C42.71630559 161.4457852 27.49169856 166.15826371 7.5 163.4375 C1.48719622 162.23136551 -3.59932041 159.38137765 -8.93359375 156.4609375 C-12.0357431 154.71325858 -12.0357431 154.71325858 -16 155 C-18.57220205 156.86625555 -18.57220205 156.86625555 -21.0625 159.3125 C-21.91972656 160.11300781 -22.77695313 160.91351563 -23.66015625 161.73828125 C-25.45793497 163.47603397 -27.24362609 165.22059168 -29 167 C-28.32453125 167.25007812 -27.6490625 167.50015625 -26.953125 167.7578125 C-24.11145321 168.95311889 -21.44615257 170.35159667 -18.73730469 171.81835938 C1.1515138 182.39315132 21.50501597 183.80812416 43.02246094 177.39892578 C46.69736715 176.23302914 50.02763545 174.98599597 53.4765625 173.23828125 C54.30929687 172.82964844 55.14203125 172.42101562 56 172 C56.66 172.33 57.32 172.66 58 173 C41.5153739 186.77819495 22.15490873 191.57354193 1 190 C-10.61376951 188.47662523 -23.38477627 184.15811215 -32.1484375 176.21484375 C-34.67998632 173.78224876 -34.67998632 173.78224876 -37.140625 173.99609375 C-39.27490072 175.14842329 -40.95008869 176.43565708 -42.75 178.0625 C-43.36359375 178.61035156 -43.9771875 179.15820312 -44.609375 179.72265625 C-45.06828125 180.14417969 -45.5271875 180.56570313 -46 181 C-44.47260415 185.23195666 -41.36230849 187.32213422 -37.8125 189.8125 C-37.19391113 190.24900879 -36.57532227 190.68551758 -35.93798828 191.13525391 C-13.40105596 206.56599736 14.28210133 211.61839758 41.14453125 207.3125 C51.17006432 205.28775954 62.1112254 201.67637185 70.796875 196.25390625 C71.52390625 195.84011719 72.2509375 195.42632812 73 195 C73.66 195.33 74.32 195.66 75 196 C66.25378462 203.1559944 57.25149591 208.3103964 47 213 C46.10410156 213.4228125 45.20820313 213.845625 44.28515625 214.28125 C24.09423616 223.1504728 -0.20569951 222.13311223 -20.625 214.75 C-37.79683532 207.67553973 -51.05504646 198.07244062 -63 184 C-63.87205078 183.06607422 -63.87205078 183.06607422 -64.76171875 182.11328125 C-66.1875 180.5625 -66.1875 180.5625 -68 178 C-67.86081868 175.04693554 -67.09360786 174.09021369 -64.953125 172.02734375 C-64.06109375 171.33769531 -63.1690625 170.64804687 -62.25 169.9375 C-61.25484375 169.15246094 -60.2596875 168.36742187 -59.234375 167.55859375 C-58.70521484 167.14335449 -58.17605469 166.72811523 -57.63085938 166.30029297 C-54.86710197 164.0967343 -52.18754207 161.79536683 -49.5 159.5 C-45.55438185 156.14451614 -41.58354634 152.82775496 -37.5625 149.5625 C-32.70474628 145.60982994 -27.95317233 141.54451931 -23.20922852 137.45703125 C-18.69653432 133.57674852 -14.12282172 129.78397574 -9.5 126.03515625 C-8.675 125.36355469 -7.85 124.69195312 -7 124 C-5.97437958 123.37003616 -4.94875916 122.74007233 -3.89205933 122.09101868 C-1.79745774 120.32244494 -1.08051523 119.33871514 -0.44034195 116.64560509 C-0.2191905 113.58609705 -0.19280842 110.57600863 -0.22705078 107.50854492 C-0.21642105 106.34713989 -0.20579132 105.18573486 -0.19483948 103.98913574 C-0.16674755 100.15247491 -0.18086012 96.31718575 -0.1953125 92.48046875 C-0.18406484 89.81955398 -0.17047883 87.15875433 -0.15377808 84.49787903 C-0.11945298 78.21161506 -0.115498 71.92571495 -0.12250316 65.63937598 C-0.12899784 58.48088202 -0.10156149 51.32264324 -0.07130075 44.16422498 C-0.0098278 29.44280985 0.00791516 14.72154399 0 0 Z " fill="#2C2F29" transform="translate(265,101)"/>
<path d="M0 0 C1.6389624 0.0012085 1.6389624 0.0012085 3.31103516 0.00244141 C24.7777337 0.16432247 24.7777337 0.16432247 30.8125 4.1875 C30.16925781 4.20208252 29.52601563 4.21666504 28.86328125 4.23168945 C1.08198512 4.93266189 -25.70565039 9.94710023 -49.70947266 24.64770508 C-52.45826762 26.31496027 -53.90249711 27.1875 -57.1875 27.1875 C-57.6825 28.6725 -57.6825 28.6725 -58.1875 30.1875 C-59.69042969 31.55029297 -59.69042969 31.55029297 -61.609375 32.9296875 C-62.65351563 33.69345703 -62.65351563 33.69345703 -63.71875 34.47265625 C-64.4509375 34.99730469 -65.183125 35.52195313 -65.9375 36.0625 C-70.71333309 39.50694077 -75.14374544 42.87189639 -79.1875 47.1875 C-80.07308594 48.12207031 -80.95867187 49.05664062 -81.87109375 50.01953125 C-105.43519124 75.40241921 -117.46576722 105.17353611 -122.1875 139.1875 C-129.035095 138.5027405 -136.55870063 135.39489929 -141.1875 130.1875 C-142.80541437 104.35763908 -128.87588828 75.90398797 -113.1875 56.1875 C-112.47851562 55.27613281 -111.76953125 54.36476562 -111.0390625 53.42578125 C-91.95666525 29.42213418 -65.14166297 11.39609529 -35.1875 4.1875 C-34.0634375 3.90132813 -32.939375 3.61515625 -31.78125 3.3203125 C-21.16418238 0.71565806 -10.91257743 -0.00838268 0 0 Z " fill="#F9F9F8" transform="translate(273.1875,80.8125)"/>
<path d="M0 0 C22.60405162 20.48492178 33.88014148 55.37783992 36 85 C37.99515217 126.72249729 25.57213628 165.27350187 -2.57910156 196.44580078 C-3.04799805 196.95868652 -3.51689453 197.47157227 -4 198 C-4.46631836 198.51159668 -4.93263672 199.02319336 -5.41308594 199.55029297 C-24.49313693 220.19524862 -49.04943186 233.75747924 -76.1875 240.4375 C-77.28771484 240.70916992 -78.38792969 240.98083984 -79.52148438 241.26074219 C-80.55982422 241.5034082 -81.59816406 241.74607422 -82.66796875 241.99609375 C-83.59891357 242.21450928 -84.5298584 242.4329248 -85.48901367 242.65795898 C-88.02078941 243.00283189 -89.60062195 242.81010201 -92 242 C-91.42894531 241.85304688 -90.85789062 241.70609375 -90.26953125 241.5546875 C-82.77725112 239.48210126 -75.9824937 236.38327014 -69 233 C-67.32744141 232.22849609 -67.32744141 232.22849609 -65.62109375 231.44140625 C-29.40304102 214.25946314 -3.91516377 184.11078911 12 148 C12.495 146.89011719 12.99 145.78023437 13.5 144.63671875 C29.27455309 106.6299049 27.33811613 61.80109204 12.046875 24.07421875 C8.98166762 16.81382102 5.76687634 9.87900446 1.03125 3.53125 C0 2 0 2 0 0 Z " fill="#A3C959" transform="translate(412,137)"/>
<path d="M0 0 C0.06469482 0.63276855 0.12938965 1.26553711 0.19604492 1.91748047 C2.20241572 20.96164212 6.24617057 38.12390678 13 56 C10.00519083 56.8723412 7.36424089 57.10829766 4.25 57.0625 C3.45078125 57.05347656 2.6515625 57.04445313 1.828125 57.03515625 C1.22484375 57.02355469 0.6215625 57.01195312 0 57 C-5.12170007 47.21412146 -9.64043459 37.55692617 -13 27 C-13.39316406 25.78957031 -13.78632813 24.57914062 -14.19140625 23.33203125 C-16.2448433 16.65657214 -17.48156133 10.98263929 -17 4 C-11.32550651 0.73716624 -6.50457055 0 0 0 Z " fill="#EEF2E6" transform="translate(150,238)"/>
<path d="M0 0 C5.94 0 11.88 0 18 0 C18 41.91 18 83.82 18 127 C17.34 127 16.68 127 16 127 C16 85.75 16 44.5 16 2 C11.38 2 6.76 2 2 2 C2 41.27 2 80.54 2 121 C1.01 121.495 1.01 121.495 0 122 C0 122.66 0 123.32 0 124 C-3.465 124.495 -3.465 124.495 -7 125 C-5 123 -3 121 -1 119 C-0.89201408 117.45688956 -0.85316742 115.9088876 -0.84178162 114.36204529 C-0.82709839 112.85805679 -0.82709839 112.85805679 -0.81211853 111.32368469 C-0.80636307 110.21454208 -0.8006076 109.10539948 -0.79467773 107.96264648 C-0.78477814 106.80182556 -0.77487854 105.64100464 -0.76467896 104.44500732 C-0.73295305 100.58705727 -0.70826284 96.72909487 -0.68359375 92.87109375 C-0.66303378 90.20450911 -0.64208634 87.53793036 -0.62062073 84.87135315 C-0.57064367 78.5567447 -0.52572351 72.2421107 -0.48259836 65.92745215 C-0.43326873 58.74011088 -0.37833481 51.55281592 -0.32291877 44.3655194 C-0.20902181 29.57705664 -0.10239845 14.78854692 0 0 Z " fill="#37451E" transform="translate(265,101)"/>
<path d="M0 0 C1.6389624 0.0012085 1.6389624 0.0012085 3.31103516 0.00244141 C24.7777337 0.16432247 24.7777337 0.16432247 30.8125 4.1875 C30.16925781 4.20208252 29.52601563 4.21666504 28.86328125 4.23168945 C4.83257652 4.83802767 -15.95554698 9.24142301 -38.1875 18.1875 C-38.1875 17.1975 -38.1875 16.2075 -38.1875 15.1875 C-37.1975 15.1875 -36.2075 15.1875 -35.1875 15.1875 C-35.1875 11.5575 -35.1875 7.9275 -35.1875 4.1875 C-33.23123287 3.69996634 -31.27233537 3.22298567 -29.3125 2.75 C-28.22195312 2.48316406 -27.13140625 2.21632813 -26.0078125 1.94140625 C-17.37824222 0.23843379 -8.77676111 -0.00674202 0 0 Z " fill="#F2F4EC" transform="translate(273.1875,80.8125)"/>
<path d="M0 0 C3.88212373 0.62934246 7.10749067 1.82673479 10.6875 3.4375 C26.02475486 9.89332747 41.42147584 9.41782398 57 4 C59.73737995 2.76858277 62.34600143 1.40505807 65 0 C65.99 0.495 65.99 0.495 67 1 C50.71630559 12.4457852 35.49169856 17.15826371 15.5 14.4375 C9.48719622 13.23136551 4.40067959 10.38137765 -0.93359375 7.4609375 C-4.0357431 5.71325858 -4.0357431 5.71325858 -8 6 C-10.20067421 6.93283296 -10.20067421 6.93283296 -12 8 C-12 7.34 -12 6.68 -12 6 C-11.34 6 -10.68 6 -10 6 C-9.67 4.68 -9.34 3.36 -9 2 C-6.03 2.495 -6.03 2.495 -3 3 C-3 3.66 -3 4.32 -3 5 C-1.68 5 -0.36 5 1 5 C1 5.66 1 6.32 1 7 C2.32 6.34 3.64 5.68 5 5 C3.74458443 2.48916886 2.49936512 2.12874554 0 1 C0 0.67 0 0.34 0 0 Z M1 4 C3 5 3 5 3 5 Z " fill="#2C3324" transform="translate(257,250)"/>
<path d="M0 0 C1.33030297 6.98409058 1.06756843 13.90531503 1 21 C-3.95 21 -8.9 21 -14 21 C-16.5915262 15.06108578 -17.40368295 10.45892714 -17 4 C-11.32550651 0.73716624 -6.50457055 0 0 0 Z " fill="#FBFCF9" transform="translate(150,238)"/>
<path d="M0 0 C0 6.6 0 13.2 0 20 C-6.93 20 -13.86 20 -21 20 C-19.08066092 12.32264369 -13.6678707 6.19393814 -7.87109375 0.9609375 C-6 0 -6 0 0 0 Z " fill="#FCFCFB" transform="translate(173,131)"/>
<path d="M0 0 C5.94 0 11.88 0 18 0 C16.04241524 7.21215439 13.49306641 13.39149598 10 20 C6.7 20 3.4 20 0 20 C0 13.4 0 6.8 0 0 Z " fill="#FDFEFB" transform="translate(153,153)"/>
<path d="M0 0 C4.62 0 9.24 0 14 0 C14 6.93 14 13.86 14 21 C11.36 21 8.72 21 6 21 C0.44419134 7.55125285 0.44419134 7.55125285 0 0 Z " fill="#FBFCFA" transform="translate(137,260)"/>
<path d="M0 0 C0.66 0.33 1.32 0.66 2 1 C-8.80365051 9.83935041 -25.55063026 22 -40 22 C-40 21.34 -40 20.68 -40 20 C-38.865625 19.71125 -37.73125 19.4225 -36.5625 19.125 C-35.386875 18.75375 -34.21125 18.3825 -33 18 C-32.67 17.34 -32.34 16.68 -32 16 C-40.58 16 -49.16 16 -58 16 C-58 15.67 -58 15.34 -58 15 C-57.45287354 14.96036133 -56.90574707 14.92072266 -56.34204102 14.87988281 C-37.89817427 13.48556731 -18.2765496 11.28857217 -2.203125 1.25390625 C-1.47609375 0.84011719 -0.7490625 0.42632812 0 0 Z " fill="#2E371E" transform="translate(338,296)"/>
<path d="M0 0 C1.67542976 0.28604898 3.34385343 0.61781233 5 1 C5.495 3.475 5.495 3.475 6 6 C-3.16911864 10.20437635 -12.38932913 13.06265677 -22.1875 15.4375 C-23.28634521 15.70836426 -24.38519043 15.97922852 -25.51733398 16.25830078 C-26.55704346 16.50177246 -27.59675293 16.74524414 -28.66796875 16.99609375 C-29.59891357 17.21450928 -30.5298584 17.4329248 -31.48901367 17.65795898 C-34.02078941 18.00283189 -35.60062195 17.81010201 -38 17 C-37.42894531 16.85304688 -36.85789062 16.70609375 -36.26953125 16.5546875 C-25.72165283 13.63683242 -7.97930564 7.97930564 0 0 Z " fill="#A1C362" transform="translate(358,362)"/>
<path d="M0 0 C10.74081895 9.73386717 20.43818413 25.2142927 25 39 C25 39.99 25 40.98 25 42 C24.34 42 23.68 42 23 42 C22.67 41.01 22.34 40.02 22 39 C21.34 39 20.68 39 20 39 C19.34 39.66 18.68 40.32 18 41 C17.5875 39.8140625 17.175 38.628125 16.75 37.40625 C13.80376677 29.0899627 10.7170923 20.95211053 6.75 13.0625 C6.42128906 12.40765625 6.09257812 11.7528125 5.75390625 11.078125 C4.07103213 7.81540987 2.19990249 4.92641349 0 2 C0 1.34 0 0.68 0 0 Z " fill="#A5C566" transform="translate(412,137)"/>
<path d="M0 0 C5.28 0 10.56 0 16 0 C13.20671632 4.18992552 10.51407967 7.91868813 7.3125 11.75 C4.35725131 15.17894061 4.35725131 15.17894061 2 19 C1.34 19 0.68 19 0 19 C0 12.73 0 6.46 0 0 Z " fill="#FBFDF6" transform="translate(174,131)"/>
<path d="M0 0 C6.27 0 12.54 0 19 0 C19 0.66 19 1.32 19 2 C17.57885742 3.296875 17.57885742 3.296875 15.60546875 4.75 C14.89712891 5.2759375 14.18878906 5.801875 13.45898438 6.34375 C12.70939453 6.8903125 11.95980469 7.436875 11.1875 8 C10.08051758 8.81984375 10.08051758 8.81984375 8.95117188 9.65625 C6.00203785 11.83407205 3.05106242 13.96595839 0 16 C0 10.72 0 5.44 0 0 Z " fill="#FBFDF6" transform="translate(196,109)"/>
<path d="M0 0 C3.3 0 6.6 0 10 0 C10.33 1.65 10.66 3.3 11 5 C11.99 5.33 12.98 5.66 14 6 C15.1875 9.0625 15.1875 9.0625 16 12 C13.08381479 12.82558668 10.40464506 13.18920445 7.375 13.25 C6.21097656 13.28867187 6.21097656 13.28867187 5.0234375 13.328125 C4.35570312 13.21984375 3.68796875 13.1115625 3 13 C0.24263957 8.86395936 0 4.91089275 0 0 Z " fill="#FBFCF3" transform="translate(147,282)"/>
<path d="M0 0 C0.33 0 0.66 0 1 0 C1.16353931 16.60265748 1.28696885 33.20505363 1.3626852 49.80832195 C1.39877662 57.51758947 1.44797861 65.22635648 1.52807617 72.93530273 C1.59785832 79.65465163 1.64301 86.37363808 1.65861946 93.09333926 C1.66774409 96.65143981 1.68917647 100.2085035 1.7401104 103.76627159 C1.79651634 107.73850269 1.79792848 111.70972053 1.79467773 115.68237305 C1.81984467 116.8612912 1.8450116 118.04020935 1.87094116 119.25485229 C1.80230198 126.98629693 1.80230198 126.98629693 -0.50633049 129.9032383 C-2.33632613 131.31245228 -3.79558023 132.30901488 -6 133 C-6.99 132.67 -7.98 132.34 -9 132 C-7.8803014 130.99406757 -6.7540588 129.9954151 -5.625 129 C-4.99851562 128.443125 -4.37203125 127.88625 -3.7265625 127.3125 C-2 126 -2 126 0 126 C0 84.42 0 42.84 0 0 Z " fill="#8DA45D" transform="translate(283,102)"/>
<path d="M0 0 C2 2 2 2 2.15234375 3.75 C0.3362384 22.76957599 -7.42634342 41.49660887 -16.125 58.3125 C-16.53258545 59.10712646 -16.9401709 59.90175293 -17.36010742 60.72045898 C-19.76036618 65.2183415 -22.18949671 68.60309227 -26 72 C-24.41037341 67.96479403 -22.71767682 63.98188718 -21 60 C-20.34 60 -19.68 60 -19 60 C-18.505 57.03 -18.505 57.03 -18 54 C-17.34 54 -16.68 54 -16 54 C-15.71125 53.071875 -15.4225 52.14375 -15.125 51.1875 C-14 48 -14 48 -12 45 C-12.99 44.67 -13.98 44.34 -15 44 C-14.34 43.34 -13.68 42.68 -13 42 C-13 42.66 -13 43.32 -13 44 C-12.34 44 -11.68 44 -11 44 C-10.67 41.69 -10.34 39.38 -10 37 C-9.34 37 -8.68 37 -8 37 C-7.86464844 36.31808594 -7.72929687 35.63617188 -7.58984375 34.93359375 C-6.92766303 31.64023138 -6.25148866 28.35036815 -5.5625 25.0625 C-5.31628906 23.87785156 -5.07007813 22.69320313 -4.81640625 21.47265625 C-4 18 -4 18 -2.97265625 14.95703125 C-1.95002388 11.84806456 -1.37766763 8.85643479 -0.875 5.625 C-0.70742188 4.56539062 -0.53984375 3.50578125 -0.3671875 2.4140625 C-0.24601562 1.61742187 -0.12484375 0.82078125 0 0 Z " fill="#2E3A1B" transform="translate(433,244)"/>
<path d="M0 0 C2.91658467 4.374877 2.3416071 8.3480437 2.3125 13.5 C2.30686035 14.53302246 2.3012207 15.56604492 2.29541016 16.63037109 C1.98301688 36.73798198 -2.51601796 56.74939383 -11 75 C-12.013234 77.32787476 -13.00589963 79.66386412 -14 82 C-14.33 82 -14.66 82 -15 82 C-14.91214662 80.58222818 -14.80395353 79.16570961 -14.6875 77.75 C-14.62949219 76.96109375 -14.57148438 76.1721875 -14.51171875 75.359375 C-13.9042779 72.55865536 -12.74717217 71.25059466 -11 69 C-5.56492374 57.06934481 -2.67133266 45.05626279 -2 32 C-1.34 32 -0.68 32 0 32 C0 21.44 0 10.88 0 0 Z " fill="#9AB862" transform="translate(415,208)"/>
<path d="M0 0 C0.33 0 0.66 0 1 0 C1.0700438 15.33343847 1.12296544 30.66686956 1.15543652 46.00043201 C1.17091335 53.1198899 1.19201832 60.23924845 1.22631836 67.35864258 C1.2593839 74.22506849 1.27683723 81.09139097 1.28463173 87.95789146 C1.29018873 90.58184118 1.30103969 93.20578504 1.31719017 95.82969093 C1.33886421 99.49571731 1.34197108 103.16131278 1.34057617 106.82739258 C1.35675491 108.46629456 1.35675491 108.46629456 1.3732605 110.13830566 C1.36913651 111.13529984 1.36501251 112.13229401 1.36076355 113.15950012 C1.36352893 114.02690732 1.36629431 114.89431452 1.36914349 115.78800678 C0.92014215 118.47852674 0.16299164 119.38365551 -2 121 C-2.66 121 -3.32 121 -4 121 C-4 119.68 -4 118.36 -4 117 C-2.68 117 -1.36 117 0 117 C-0.00607553 116.40308885 -0.01215105 115.80617769 -0.01841068 115.19117832 C-0.1656933 100.68692132 -0.30743591 86.18261807 -0.4429636 71.6782465 C-0.50863745 64.66412997 -0.57620689 57.65004115 -0.64819336 50.63598633 C-0.71759412 43.87335867 -0.78177253 37.11070026 -0.84269524 30.34799004 C-0.86686369 27.76146184 -0.89281408 25.17494968 -0.92053413 22.58845711 C-0.95891303 18.97965127 -0.99108723 15.37084152 -1.02172852 11.76196289 C-1.03467453 10.6808725 -1.04762054 9.5997821 -1.06095886 8.4859314 C-1.06799835 7.50851486 -1.07503784 6.53109833 -1.08229065 5.52406311 C-1.09058679 4.66956101 -1.09888292 3.81505892 -1.10743046 2.93466282 C-1 1 -1 1 0 0 Z " fill="#A5C26C" transform="translate(264,102)"/>
<path d="M0 0 C0 5.94 0 11.88 0 18 C-3.3 18 -6.6 18 -10 18 C-9.53416726 12.09945195 -7.09662119 6.97607336 -4 2 C-1 0 -1 0 0 0 Z " fill="#F8F8F8" transform="translate(151,155)"/>
<path d="M0 0 C2.06277107 0.14194764 4.12521031 0.28872216 6.1875 0.4375 C7.91033203 0.55931641 7.91033203 0.55931641 9.66796875 0.68359375 C13 1 13 1 15.390625 1.5 C17.98688639 1.99748721 20.44293785 2.20307095 23.08203125 2.31640625 C24.01337891 2.35830078 24.94472656 2.40019531 25.90429688 2.44335938 C26.86400391 2.48267578 27.82371094 2.52199219 28.8125 2.5625 C29.79154297 2.60568359 30.77058594 2.64886719 31.77929688 2.69335938 C34.18607027 2.7990226 36.59293983 2.90112327 39 3 C38.67 3.99 38.34 4.98 38 6 C9.60032827 6.80016414 9.60032827 6.80016414 0 2 C0 1.34 0 0.68 0 0 Z " fill="#344220" transform="translate(249,315)"/>
<path d="M0 0 C0.66 0.33 1.32 0.66 2 1 C-13.17192844 11.66432651 -25.58567433 15.22985982 -44 15 C-44 14.67 -44 14.34 -44 14 C-37.73 13.34 -31.46 12.68 -25 12 C-25 11.67 -25 11.34 -25 11 C-27.97 10.67 -30.94 10.34 -34 10 C-34 9.67 -34 9.34 -34 9 C-32.96101563 8.89042969 -31.92203125 8.78085937 -30.8515625 8.66796875 C-21.17447671 7.59196233 -12.25019648 6.28135175 -3.5 1.75 C-2.345 1.1725 -1.19 0.595 0 0 Z " fill="#2C3816" transform="translate(322,250)"/>
<path d="M0 0 C0.99 0.33 1.98 0.66 3 1 C3 1.99 3 2.98 3 4 C3.99 4 4.98 4 6 4 C6.33 6.31 6.66 8.62 7 11 C6.34 11 5.68 11 5 11 C5.02320313 11.96421875 5.04640625 12.9284375 5.0703125 13.921875 C5.08835937 15.18515625 5.10640625 16.4484375 5.125 17.75 C5.14820313 19.00296875 5.17140625 20.2559375 5.1953125 21.546875 C5.01537302 24.72820492 4.68998582 26.36521896 3 29 C2.80664062 27.7934375 2.61328125 26.586875 2.4140625 25.34375 C2.15121866 23.72913784 1.88818783 22.11455612 1.625 20.5 C1.49867188 19.70851562 1.37234375 18.91703125 1.2421875 18.1015625 C0.6006098 14.1879385 -0.13815776 10.40928121 -1.2265625 6.59375 C-1.48179687 5.4078125 -1.73703125 4.221875 -2 3 C-1.34 2.01 -0.68 1.02 0 0 Z " fill="#A5C85C" transform="translate(432,175)"/>
<path d="M0 0 C0 0.99 0 1.98 0 3 C-0.7115625 3.61875 -0.7115625 3.61875 -1.4375 4.25 C-3.72961041 6.49201902 -3.72961041 6.49201902 -4 13 C1.61 13 7.22 13 13 13 C12.67 13.66 12.34 14.32 12 15 C6.72 14.67 1.44 14.34 -4 14 C-4 20.27 -4 26.54 -4 33 C-3.34 33.33 -2.68 33.66 -2 34 C-2.99 34.66 -3.98 35.32 -5 36 C-5 28.74 -5 21.48 -5 14 C-10.81578053 15.5848717 -10.81578053 15.5848717 -16 18 C-11.37338295 11.26695568 -5.86878323 5.66001228 0 0 Z " fill="#E4E6E2" transform="translate(178,117)"/>
<path d="M0 0 C0.99 0.33 1.98 0.66 3 1 C1.40675714 5.36319449 -1.98819292 7.91215426 -5.4375 10.8125 C-6.05915039 11.34004883 -6.68080078 11.86759766 -7.32128906 12.41113281 C-21.21229786 24 -21.21229786 24 -26 24 C-25.25 18.25 -25.25 18.25 -23 16 C-20.99297968 15.74102964 -18.98519627 15.48528382 -16.97265625 15.2734375 C-14.61819988 14.94707721 -12.93526189 14.39338856 -11 13 C-10.67 12.01 -10.34 11.02 -10 10 C-9.01 10 -8.02 10 -7 10 C-7 9.01 -7 8.02 -7 7 C-6.01 6.67 -5.02 6.34 -4 6 C-2.31461399 4.00334686 -2.31461399 4.00334686 -1 2 C-0.34 2.33 0.32 2.66 1 3 C0.67 2.01 0.34 1.02 0 0 Z " fill="#9FC05F" transform="translate(372,322)"/>
<path d="M0 0 C2.64 0 5.28 0 8 0 C7.38388165 4.31931387 6.35761422 8.25208775 4.9375 12.375 C4.57527344 13.43460938 4.21304688 14.49421875 3.83984375 15.5859375 C3.56269531 16.38257813 3.28554687 17.17921875 3 18 C2.01 18 1.02 18 0 18 C0 12.06 0 6.12 0 0 Z " fill="#FDFEFB" transform="translate(153,174)"/>
<path d="M0 0 C6.6 0 13.2 0 20 0 C20 0.66 20 1.32 20 2 C13.42736799 4.43430815 6.91663627 5.90109517 0 7 C0 4.69 0 2.38 0 0 Z " fill="#FDFDFB" transform="translate(239,88)"/>
<path d="M0 0 C3.62327475 1.39062306 7.09361518 3.01546614 10.578125 4.71484375 C16.3658327 7.48598875 22.07882963 9.73340019 28.328125 11.27734375 C28.328125 11.60734375 28.328125 11.93734375 28.328125 12.27734375 C20.96332667 11.83968155 14.97461776 10.60059013 8.328125 7.27734375 C8.328125 6.61734375 8.328125 5.95734375 8.328125 5.27734375 C6.678125 5.27734375 5.028125 5.27734375 3.328125 5.27734375 C2.998125 6.26734375 2.668125 7.25734375 2.328125 8.27734375 C1.668125 7.94734375 1.008125 7.61734375 0.328125 7.27734375 C0.658125 5.62734375 0.988125 3.97734375 1.328125 2.27734375 C-0.651875 2.93734375 -2.631875 3.59734375 -4.671875 4.27734375 C-4.671875 2.95734375 -4.671875 1.63734375 -4.671875 0.27734375 C-2.671875 -0.72265625 -2.671875 -0.72265625 0 0 Z " fill="#A1C364" transform="translate(228.671875,307.72265625)"/>
<path d="M0 0 C0.66 0.33 1.32 0.66 2 1 C-0.2696712 3.61012188 -1.69951321 4.20543836 -5 5 C-8.50887069 6.25135629 -12.00006147 7.54645912 -15.4921875 8.84375 C-21.2177774 10.73102685 -26.36315101 11.11921556 -32.375 11.0625 C-34.24285156 11.04896484 -34.24285156 11.04896484 -36.1484375 11.03515625 C-37.55996094 11.01775391 -37.55996094 11.01775391 -39 11 C-39.33 10.34 -39.66 9.68 -40 9 C-39.4423999 8.96559814 -38.8847998 8.93119629 -38.31030273 8.89575195 C-25.5420383 8.04978066 -13.20939552 6.92852728 -1.72265625 0.78125 C-1.15417969 0.5234375 -0.58570313 0.265625 0 0 Z " fill="#8AA253" transform="translate(310,282)"/>
<path d="M0 0 C0.66 0.33 1.32 0.66 2 1 C-1.55391974 3.96926381 -5.18517995 6.42318536 -9.1875 8.75 C-10.75564453 9.67039062 -10.75564453 9.67039062 -12.35546875 10.609375 C-15 12 -15 12 -17 12 C-17.66 11.34 -18.32 10.68 -19 10 C-19.99 9.67 -20.98 9.34 -22 9 C-18.66791046 6.77860698 -15.33817458 5.69460461 -11.5625 4.5 C-6.49615757 2.92363132 -6.49615757 2.92363132 -1.65234375 0.78125 C-1.10707031 0.5234375 -0.56179688 0.265625 0 0 Z " fill="#313E1C" transform="translate(321,273)"/>
<path d="M0 0 C0.33 0 0.66 0 1 0 C1.3563144 4.35495373 0.32256554 6.85357035 -1.8125 10.625 C-2.33457031 11.56601562 -2.85664063 12.50703125 -3.39453125 13.4765625 C-4.79176568 15.67270226 -5.99131758 17.36003463 -8 19 C-8.66 19 -9.32 19 -10 19 C-10 19.99 -10 20.98 -10 22 C-11.375 23.6875 -11.375 23.6875 -13 25 C-13.66 25 -14.32 25 -15 25 C-15.33 25.99 -15.66 26.98 -16 28 C-16.66 27.67 -17.32 27.34 -18 27 C-17.28714844 26.05640625 -16.57429688 25.1128125 -15.83984375 24.140625 C-10.49819118 17.00192922 -5.54897608 9.91787762 -1.2421875 2.09765625 C-0.83226562 1.40542969 -0.42234375 0.71320313 0 0 Z " fill="#2F3A1E" transform="translate(401,288)"/>
<path d="M0 0 C1.32 0.33 2.64 0.66 4 1 C-3.45415453 5.96236745 -10.63714995 10.68369739 -19 14 C-19.33 13.01 -19.66 12.02 -20 11 C-19.34 11 -18.68 11 -18 11 C-16.29220027 9.37550757 -14.62449243 7.70779973 -13 6 C-12 5 -12 5 -8.4375 4.9375 C-7.303125 4.958125 -6.16875 4.97875 -5 5 C-4.67 4.01 -4.34 3.02 -4 2 C-2.68 2 -1.36 2 0 2 C0 1.34 0 0.68 0 0 Z " fill="#2D341E" transform="translate(365,355)"/>
<path d="M0 0 C3.20607991 2.89762325 4.84578504 6.24515625 6.81640625 10.0390625 C7.85114138 12.1483427 7.85114138 12.1483427 10 13 C10 14.32 10 15.64 10 17 C10.66 17 11.32 17 12 17 C12 17.99 12 18.98 12 20 C12.61875 20.04125 13.2375 20.0825 13.875 20.125 C14.926875 20.558125 14.926875 20.558125 16 21 C16.70381157 22.98723268 17.3711811 24.98777953 18 27 C18.99 27.33 19.98 27.66 21 28 C20.34 29.32 19.68 30.64 19 32 C13.2256162 24.51665334 7.74047251 17.05977734 3.3125 8.6875 C2.97412109 8.04804443 2.63574219 7.40858887 2.28710938 6.74975586 C0 2.29218936 0 2.29218936 0 0 Z " fill="#A9C968" transform="translate(163,294)"/>
<path d="M0 0 C0.33 0 0.66 0 1 0 C1.22520096 13.179453 1.11865386 25.96649546 -1 39 C-1.33 39 -1.66 39 -2 39 C-2.10544748 29.29883218 -2.02567014 19.62979653 -1.5625 9.9375 C-1.52326416 9.06319336 -1.48402832 8.18888672 -1.44360352 7.28808594 C-1.1233158 1.1233158 -1.1233158 1.1233158 0 0 Z " fill="#ABC96D" transform="translate(447,222)"/>
<path d="M0 0 C0.66 0.33 1.32 0.66 2 1 C0.6875 2.5 0.6875 2.5 -1 4 C-1.99 4 -2.98 4 -4 4 C-4 4.66 -4 5.32 -4 6 C-3.01 6.33 -2.02 6.66 -1 7 C-4.57989022 7.86905722 -8.16433193 8.71762696 -11.75 9.5625 C-12.76578125 9.80935547 -13.7815625 10.05621094 -14.828125 10.31054688 C-15.8078125 10.53935547 -16.7875 10.76816406 -17.796875 11.00390625 C-18.69760742 11.21861572 -19.59833984 11.4333252 -20.52636719 11.65454102 C-23.04298464 12.00600309 -24.61250145 11.80151737 -27 11 C-26.42894531 10.85304688 -25.85789062 10.70609375 -25.26953125 10.5546875 C-17.02574759 8.27421316 -9.23160061 4.88733667 -1.7421875 0.75390625 C-0.87980469 0.38072266 -0.87980469 0.38072266 0 0 Z " fill="#9BAE6B" transform="translate(347,368)"/>
<path d="M0 0 C2.64 0.66 5.28 1.32 8 2 C8 2.66 8 3.32 8 4 C8.99 4 9.98 4 11 4 C9.70700306 6.88437779 8.34058637 8.87219421 6 11 C0.24856597 7.6959847 0.24856597 7.6959847 -0.9375 4.375 C-1 2 -1 2 0 0 Z " fill="#2B2E2B" transform="translate(241,273)"/>
<path d="M0 0 C1.98 0.99 1.98 0.99 4 2 C4 2.66 4 3.32 4 4 C4.99 3.67 5.98 3.34 7 3 C7.33 4.65 7.66 6.3 8 8 C9.98 8 11.96 8 14 8 C16 13.75 16 13.75 16 16 C17.32 16.33 18.64 16.66 20 17 C18.375 17.75 18.375 17.75 16 18 C11.4936163 15.60885763 9.47028346 13.34769889 7 9 C5.18824967 6.8454861 3.31791797 4.75596762 1.42578125 2.671875 C0 1 0 1 0 0 Z " fill="#B3CF7E" transform="translate(184,328)"/>
<path d="M0 0 C0.99 0.33 1.98 0.66 3 1 C2.01 1.495 2.01 1.495 1 2 C0.67 2.99 0.34 3.98 0 5 C-3.44444444 8 -3.44444444 8 -6 8 C-6.33 8.99 -6.66 9.98 -7 11 C-7.99 11 -8.98 11 -10 11 C-10 11.99 -10 12.98 -10 14 C-9.34 14 -8.68 14 -8 14 C-8 14.66 -8 15.32 -8 16 C-6.02 16.66 -4.04 17.32 -2 18 C-2 18.66 -2 19.32 -2 20 C-6.30764815 18.43358249 -10.06171464 16.31663844 -14 14 C-12.70022029 10.10066087 -10.76893194 8.96845473 -7.5625 6.4375 C-3.65375212 3.36145256 -3.65375212 3.36145256 0 0 Z " fill="#859A54" transform="translate(250,254)"/>
<path d="M0 0 C0.33 0 0.66 0 1 0 C1.33 3.63 1.66 7.26 2 11 C1.01 11.495 1.01 11.495 0 12 C-3.57258347 23.23145523 -2.65251629 36.35505809 -3 48 C-3.33 48 -3.66 48 -4 48 C-4.49774775 15.74211712 -4.49774775 15.74211712 0 0 Z " fill="#ADC970" transform="translate(154,197)"/>
<path d="M0 0 C0.66 0.33 1.32 0.66 2 1 C0.68 2.32 -0.64 3.64 -2 5 C-0.68 5.66 0.64 6.32 2 7 C1.41196203 10.02419525 0.77321882 13.01758453 0 16 C-2.33333333 13.66666667 -4.66666667 11.33333333 -7 9 C-7 7.1875 -7 7.1875 -6 5 C-4.10171925 3.1543032 -2.10975408 1.61598185 0 0 Z " fill="#2D3127" transform="translate(204,270)"/>
<path d="M0 0 C0 0.99 0 1.98 0 3 C-0.639375 3.268125 -1.27875 3.53625 -1.9375 3.8125 C-4.33131686 4.88667752 -4.33131686 4.88667752 -5 8 C-5.99 8.66 -6.98 9.32 -8 10 C-8.33 10.99 -8.66 11.98 -9 13 C-10.32 13 -11.64 13 -13 13 C-13 13.66 -13 14.32 -13 15 C-13.99 15 -14.98 15 -16 15 C-16 15.66 -16 16.32 -16 17 C-17.97290587 19.34869747 -19.00306862 20.00102287 -22 21 C-22.33 21.66 -22.66 22.32 -23 23 C-23.99 22.67 -24.98 22.34 -26 22 C-19.20791423 15.69859723 -12.30341211 9.70812755 -5 4 C-3.33196669 2.66837677 -1.66494337 1.33548461 0 0 Z " fill="#2E3D19" transform="translate(232,247)"/>
<path d="M0 0 C0.66 0.66 1.32 1.32 2 2 C4.89967757 2.30675232 7.71783178 2.51173371 10.625 2.625 C11.42679688 2.66367188 12.22859375 2.70234375 13.0546875 2.7421875 C15.03607556 2.83653931 17.01800645 2.91936215 19 3 C19 2.01 19 1.02 19 0 C19.99 0 20.98 0 22 0 C21.79503906 0.845625 21.59007812 1.69125 21.37890625 2.5625 C19.91982438 8.70600261 18.61628354 14.71390787 18 21 C17.67 21 17.34 21 17 21 C17 15.39 17 9.78 17 4 C11.39 4 5.78 4 0 4 C0 2.68 0 1.36 0 0 Z " fill="#E6EEDA" transform="translate(134,192)"/>
<path d="M0 0 C0.99 0.495 0.99 0.495 2 1 C4.42166127 10.20231284 2.97809085 19.86899136 1 29 C0.67 29 0.34 29 0 29 C0 19.43 0 9.86 0 0 Z " fill="#263217" transform="translate(417,211)"/>
<path d="M0 0 C3.50289912 1.07781511 6.76836365 2.35120925 10.0625 3.9375 C15.79824479 6.55983538 21.84658057 7.74458831 28 9 C28 9.33 28 9.66 28 10 C23.42186914 10.07759544 19.48438049 9.8968761 15 9 C12.32684308 8.91473984 9.67564619 8.95465006 7 9 C6.67 8.01 6.34 7.02 6 6 C5.34 5.67 4.68 5.34 4 5 C4 4.34 4 3.68 4 3 C2.35 2.67 0.7 2.34 -1 2 C-0.67 1.34 -0.34 0.68 0 0 Z " fill="#8BA650" transform="translate(238,281)"/>
<path d="M0 0 C1.98 0 3.96 0 6 0 C6 4.29 6 8.58 6 13 C4.68 12.67 3.36 12.34 2 12 C1.66269158 10.56342755 1.33030409 9.12569907 1 7.6875 C0.814375 6.88699219 0.62875 6.08648437 0.4375 5.26171875 C0 3 0 3 0 0 Z " fill="#F2F2F3" transform="translate(147,282)"/>
<path d="M0 0 C2.5216376 0.11503269 5.0418119 0.24174777 7.5625 0.375 C8.61920898 0.42140625 8.61920898 0.42140625 9.69726562 0.46875 C14.41295741 0.72952558 18.50385496 1.54658123 23 3 C23 3.33 23 3.66 23 4 C15.41 4 7.82 4 0 4 C0 2.68 0 1.36 0 0 Z " fill="#EEF5E1" transform="translate(281,81)"/>
<path d="M0 0 C0.29648437 0.60972656 0.59296875 1.21945313 0.8984375 1.84765625 C1.99891422 4.09933927 1.99891422 4.09933927 3.625 6.4375 C5.12991342 9.24211138 5.2682825 10.87003753 5 14 C4.01 14 3.02 14 2 14 C1.34 15.98 0.68 17.96 0 20 C-0.66 20 -1.32 20 -2 20 C-1.41339754 13.32271667 -0.76418989 6.65936905 0 0 Z " fill="#9CBF5D" transform="translate(435,242)"/>
<path d="M0 0 C0.66 0 1.32 0 2 0 C4.29658079 12.01603879 4.21517374 23.81454544 4 36 C3.67 36 3.34 36 3 36 C2.67 30.06 2.34 24.12 2 18 C1.67 18 1.34 18 1 18 C-0.32594359 12.03325384 -0.0884587 6.07416385 0 0 Z " fill="#425124" transform="translate(433,196)"/>
<path d="M0 0 C0.66 0.33 1.32 0.66 2 1 C0.12952125 2.44371903 -1.74600697 3.87993439 -3.625 5.3125 C-4.66914063 6.11300781 -5.71328125 6.91351563 -6.7890625 7.73828125 C-9.77083904 9.83858371 -12.6976508 11.46782897 -16 13 C-16 12.01 -16 11.02 -16 10 C-17.32 9.67 -18.64 9.34 -20 9 C-18.97519531 8.60167969 -17.95039063 8.20335937 -16.89453125 7.79296875 C-15.53376242 7.25804583 -14.17309043 6.72287651 -12.8125 6.1875 C-12.13896484 5.92646484 -11.46542969 5.66542969 -10.77148438 5.39648438 C-7.69836781 4.18222856 -4.96351377 2.97755077 -2.13671875 1.23828125 C-1.43160156 0.82964844 -0.72648437 0.42101562 0 0 Z " fill="#354519" transform="translate(338,296)"/>
<path d="M0 0 C6.33038442 -0.4108663 12.28886462 0.23205614 18.5 1.375 C19.20640625 1.50108643 19.9128125 1.62717285 20.640625 1.75708008 C25.74891496 2.74891496 25.74891496 2.74891496 28 5 C18.30916177 4.64335748 9.35258961 3.81640482 0 1 C0 0.67 0 0.34 0 0 Z " fill="#97B45D" transform="translate(238,361)"/>
<path d="M0 0 C2.20644747 2.04498098 3.65854534 3.9332361 5.0078125 6.6171875 C5.35457031 7.30683594 5.70132812 7.99648437 6.05859375 8.70703125 C6.41050781 9.42246094 6.76242187 10.13789063 7.125 10.875 C7.48464844 11.58269531 7.84429687 12.29039062 8.21484375 13.01953125 C10.02484087 16.65986253 11.47192192 19.91939663 12 24 C11.34 24 10.68 24 10 24 C5.14141061 14.45565642 5.14141061 14.45565642 3.3125 10.0625 C2.07131829 6.90971408 2.07131829 6.90971408 0 4 C0 2.68 0 1.36 0 0 Z " fill="#9BB963" transform="translate(396,151)"/>
<path d="M0 0 C6.3167845 5.72458595 12.14484112 12.9177041 15 21 C9.85971101 18.92811225 8.03904969 17.1080986 5.8125 12.0625 C4.13865283 8.34130258 2.45899395 5.24239025 0 2 C0 1.34 0 0.68 0 0 Z " fill="#A4BE6F" transform="translate(412,137)"/>
<path d="M0 0 C1.32 0.99 2.64 1.98 4 3 C3.67 3.66 3.34 4.32 3 5 C3.99 5 4.98 5 6 5 C6 6.65 6 8.3 6 10 C6.66 10.33 7.32 10.66 8 11 C3.9255567 11 1.88254967 8.90830751 -1.1875 6.5 C-2.02571289 5.85611328 -2.02571289 5.85611328 -2.88085938 5.19921875 C-4.25885847 4.13921945 -5.63009407 3.07043812 -7 2 C-6.34 1.67 -5.68 1.34 -5 1 C-2.375 1.9375 -2.375 1.9375 0 3 C0 2.01 0 1.02 0 0 Z " fill="#2E3821" transform="translate(361,104)"/>
<path d="M0 0 C1.11375 0.185625 2.2275 0.37125 3.375 0.5625 C6.82568861 1.31680657 6.82568861 1.31680657 9 0 C9.99 0.66 10.98 1.32 12 2 C12 2.66 12 3.32 12 4 C12.99 4.33 13.98 4.66 15 5 C15 5.66 15 6.32 15 7 C17.475 7.495 17.475 7.495 20 8 C20 8.66 20 9.32 20 10 C15.26210835 8.55676531 11.01141849 6.62773267 6.625 4.375 C5.66400391 3.88773437 5.66400391 3.88773437 4.68359375 3.390625 C3.12052499 2.59742593 1.55999378 1.79922969 0 1 C0 0.67 0 0.34 0 0 Z " fill="#9FBF64" transform="translate(201,346)"/>
<path d="M0 0 C5.86992402 0.56441577 11.37124341 1.76956059 17.0703125 3.28125 C20.03355655 4.00823254 22.98559189 4.53486878 26 5 C26 5.33 26 5.66 26 6 C20.72 6 15.44 6 10 6 C10 5.34 10 4.68 10 4 C8.9171875 4.061875 8.9171875 4.061875 7.8125 4.125 C4.79270631 3.99078695 2.73064271 3.24829381 0 2 C0 1.34 0 0.68 0 0 Z " fill="#2D371D" transform="translate(252,305)"/>
<path d="M0 0 C0.54785156 0.17015625 1.09570312 0.3403125 1.66015625 0.515625 C10.97473639 3.36300885 20.41770106 6.2113042 30 8 C30 8.33 30 8.66 30 9 C18.81936267 8.96506051 10.17429847 6.32077351 0 2 C0 1.34 0 0.68 0 0 Z " fill="#2F3E18" transform="translate(220,356)"/>
<path d="M0 0 C0.72703125 0.09539062 1.4540625 0.19078125 2.203125 0.2890625 C3.96935867 0.52146167 5.73477406 0.76006638 7.5 1 C7.5 1.33 7.5 1.66 7.5 2 C3.5833957 2.0580966 -0.33309763 2.09362893 -4.25 2.125 C-5.36117188 2.14175781 -6.47234375 2.15851563 -7.6171875 2.17578125 C-9.22207031 2.18544922 -9.22207031 2.18544922 -10.859375 2.1953125 C-11.84389648 2.20578613 -12.82841797 2.21625977 -13.84277344 2.22705078 C-16.55973111 1.99489618 -18.18112513 1.39036273 -20.5 0 C-13.98151543 -2.17282819 -6.66441543 -0.91327174 0 0 Z " fill="#889F52" transform="translate(288.5,308)"/>
<path d="M0 0 C3.91942393 3.79694193 7.53473819 7.81197779 11.1328125 11.9140625 C12.70591369 13.67146006 14.3120285 15.35396568 16 17 C14.68 17 13.36 17 12 17 C12 16.34 12 15.68 12 15 C11.38125 14.690625 10.7625 14.38125 10.125 14.0625 C8.75 13.375 7.375 12.6875 6 12 C5.67 11.01 5.34 10.02 5 9 C4.34 8.7525 3.68 8.505 3 8.25 C2.34 7.8375 1.68 7.425 1 7 C0.25 3.375 0.25 3.375 0 0 Z " fill="#A4C368" transform="translate(201,283)"/>
<path d="M0 0 C-20.57896612 9.23134473 -20.57896612 9.23134473 -29 7 C-29 6.67 -29 6.34 -29 6 C-27.96552734 5.83564453 -27.96552734 5.83564453 -26.91015625 5.66796875 C-19.66267082 4.44514199 -12.91327942 2.7392353 -6.1875 -0.25 C-3.6314119 -1.12637306 -2.53450389 -0.74387955 0 0 Z " fill="#A0BD61" transform="translate(330,355)"/>
<path d="M0 0 C0.33 0 0.66 0 1 0 C1 1.65 1 3.3 1 5 C1.66 5 2.32 5 3 5 C3.33 3.68 3.66 2.36 4 1 C4 4.3 4 7.6 4 11 C-1.53846154 10.38461538 -1.53846154 10.38461538 -3.875 8.4375 C-4.24625 7.963125 -4.6175 7.48875 -5 7 C-3.68 7 -2.36 7 -1 7 C-1.020625 6.030625 -1.04125 5.06125 -1.0625 4.0625 C-1 1 -1 1 0 0 Z " fill="#F6FAED" transform="translate(147,209)"/>
<path d="M0 0 C7.36988707 1.966369 14.13045202 4.69582578 21 8 C17.71023192 9.09658936 16.28696233 8.79953138 13 8 C13 7.34 13 6.68 13 6 C8.545 5.01 8.545 5.01 4 4 C4 4.66 4 5.32 4 6 C3.34 6 2.68 6 2 6 C2 5.01 2 4.02 2 3 C1.34 3 0.68 3 0 3 C0 2.01 0 1.02 0 0 Z " fill="#9DBB66" transform="translate(318,88)"/>
<path d="M0 0 C-5.50421849 2.73881403 -10.6465586 4.51562869 -16.70703125 5.55859375 C-19.21843551 5.98355063 -19.21843551 5.98355063 -22.375 7.1875 C-25.21630828 8.06695256 -26.23977791 7.82806663 -29 7 C-5.25817398 -1.76887881 -5.25817398 -1.76887881 0 0 Z " fill="#B3CF7A" transform="translate(271,88)"/>
<path d="M0 0 C2.64 0 5.28 0 8 0 C8.33 1.32 8.66 2.64 9 4 C10.155 4.103125 11.31 4.20625 12.5 4.3125 C17.01171519 4.86035113 20.80605749 6.2774879 25 8 C20.92457492 9.69636983 17.54990862 8.14844185 13.625 6.75 C12.97789062 6.53214844 12.33078125 6.31429688 11.6640625 6.08984375 C7.60068658 4.68896213 3.801034 3.00054421 0 1 C0 0.67 0 0.34 0 0 Z " fill="#899F54" transform="translate(239,298)"/>
<path d="M0 0 C2.57631976 1.07259027 4.06184518 2.74620582 5.9140625 4.796875 C1.9140625 4.796875 1.9140625 4.796875 0.1640625 3.296875 C-0.4546875 2.554375 -0.4546875 2.554375 -1.0859375 1.796875 C-1.6840625 2.786875 -2.2821875 3.776875 -2.8984375 4.796875 C-3.6203125 5.786875 -4.3421875 6.776875 -5.0859375 7.796875 C-6.0759375 7.796875 -7.0659375 7.796875 -8.0859375 7.796875 C-8.4159375 8.456875 -8.7459375 9.116875 -9.0859375 9.796875 C-8.4259375 9.796875 -7.7659375 9.796875 -7.0859375 9.796875 C-7.4159375 10.786875 -7.7459375 11.776875 -8.0859375 12.796875 C-9.0759375 11.806875 -10.0659375 10.816875 -11.0859375 9.796875 C-9.72741619 6.70993796 -8.24082797 4.71045766 -5.7109375 2.484375 C-4.83308594 1.68580078 -4.83308594 1.68580078 -3.9375 0.87109375 C-2.0859375 -0.203125 -2.0859375 -0.203125 0 0 Z " fill="#88A052" transform="translate(229.0859375,274.203125)"/>
<path d="M0 0 C2.85833268 0.62110112 5.22650534 1.51616778 7.8125 2.875 C11.48179813 4.76108782 15.1968297 6.40266847 19 8 C19.66 8.33 20.32 8.66 21 9 C21 9.66 21 10.32 21 11 C16.17956741 10.39277496 12.45139334 8.34938559 8.25 6.0625 C7.56550781 5.70220703 6.88101563 5.34191406 6.17578125 4.97070312 C1.12861269 2.25722537 1.12861269 2.25722537 0 0 Z " fill="#303E18" transform="translate(224,304)"/>
<path d="M0 0 C1 2 1 2 1 6 C-0.5625 7.375 -0.5625 7.375 -3 9 C-4.75766511 10.51297855 -6.48910657 12.05277019 -8.21875 13.59765625 C-10.05736921 15.04516568 -11.87775583 16.02730476 -14 17 C-13.175 16.05125 -12.35 15.1025 -11.5 14.125 C-7.54358862 9.51549679 -3.77324563 4.75965248 0 0 Z " fill="#9DBC5C" transform="translate(403,322)"/>
<path d="M0 0 C0.33 0 0.66 0 1 0 C1.06058594 0.65226563 1.12117188 1.30453125 1.18359375 1.9765625 C1.63519991 6.68716217 2.14195039 11.34201638 3 16 C2.01 16 1.02 16 0 16 C0 13.36 0 10.72 0 8 C-4.62 8 -9.24 8 -14 8 C-14.33 8.66 -14.66 9.32 -15 10 C-15 9.01 -15 8.02 -15 7 C-10.05 7 -5.1 7 0 7 C0 4.69 0 2.38 0 0 Z " fill="#E3ECD4" transform="translate(151,252)"/>
<path d="M0 0 C3 1 3 1 4.0859375 2.703125 C6.95990283 9.92488402 8.44723362 17.24795059 8 25 C6.25270093 21.84286305 5.37430949 18.82116815 4.5625 15.3125 C3.30608871 10.08813671 1.77454064 5.07011612 0 0 Z " fill="#303D1B" transform="translate(406,169)"/>
<path d="M0 0 C0.33 0.99 0.66 1.98 1 3 C-1.36292656 5.52588702 -2.66462511 6.88820837 -6 8 C-6.598125 8.66 -7.19625 9.32 -7.8125 10 C-10.50439953 12.46116528 -12.42715954 12.67519632 -16 13 C-13.01570941 9.84558358 -9.84773081 7.328225 -6.3125 4.8125 C-3.01781999 2.57500239 -3.01781999 2.57500239 0 0 Z " fill="#2D3A1A" transform="translate(366,332)"/>
<path d="M0 0 C-16.93401288 6.52038627 -16.93401288 6.52038627 -25 6 C-18.69857924 1.79905283 -7.38886324 -2.46295441 0 0 Z " fill="#8AA253" transform="translate(326,303)"/>
<path d="M0 0 C0.66 0.33 1.32 0.66 2 1 C-10.375 9.25 -10.375 9.25 -18 8 C-15.37338371 6.24892247 -13.63128423 5.46241331 -10.6875 4.5625 C-7.76234411 3.63350098 -5.32313161 2.65541246 -2.5625 1.25 C-1.716875 0.8375 -0.87125 0.425 0 0 Z " fill="#3E5117" transform="translate(322,250)"/>
<path d="M0 0 C0.94875 0.04125 1.8975 0.0825 2.875 0.125 C-1.0950218 4.34314817 -5.43340284 7.73727103 -10.125 11.125 C-10.455 10.465 -10.785 9.805 -11.125 9.125 C-10.795 8.465 -10.465 7.805 -10.125 7.125 C-9.135 7.125 -8.145 7.125 -7.125 7.125 C-7.125 6.465 -7.125 5.805 -7.125 5.125 C-6.135 5.125 -5.145 5.125 -4.125 5.125 C-4.455 4.135 -4.785 3.145 -5.125 2.125 C-3.125 0.125 -3.125 0.125 0 0 Z " fill="#323E20" transform="translate(380.125,343.875)"/>
<path d="M0 0 C0 3.10551666 -0.5393715 4.35261084 -2 7 C-3.32 7 -4.64 7 -6 7 C-6 8.65 -6 10.3 -6 12 C-8.97 11.505 -8.97 11.505 -12 11 C-8.19588166 7.08060535 -4.18423892 3.50897269 0 0 Z " fill="#2F3A21" transform="translate(257,226)"/>
<path d="M0 0 C1 2 1 2 0.375 4.8125 C-1.19146358 8.44384739 -3.15485395 10.29711125 -6 13 C-7.29519995 15.16620544 -7.29519995 15.16620544 -8 17 C-8.66 17 -9.32 17 -10 17 C-8.86375209 13.06683414 -7.9140955 10.8020149 -5 8 C-3.58778346 5.70778286 -2.30803527 3.35446348 -1 1 C-0.67 0.67 -0.34 0.34 0 0 Z " fill="#AFCC70" transform="translate(180,143)"/>
<path d="M0 0 C0.103125 0.639375 0.20625 1.27875 0.3125 1.9375 C0.539375 2.618125 0.76625 3.29875 1 4 C1.99 4.33 2.98 4.66 4 5 C3.01 5 2.02 5 1 5 C1.33 10.61 1.66 16.22 2 22 C1.34 22 0.68 22 0 22 C0 16.39 0 10.78 0 5 C-1.65 5 -3.3 5 -5 5 C-3.35 3.35 -1.7 1.7 0 0 Z " fill="#E0E1DE" transform="translate(195,104)"/>
<path d="M0 0 C0 0.33 0 0.66 0 1 C-1.15628906 1.19916016 -1.15628906 1.19916016 -2.3359375 1.40234375 C-3.33882813 1.57894531 -4.34171875 1.75554687 -5.375 1.9375 C-6.87160156 2.19853516 -6.87160156 2.19853516 -8.3984375 2.46484375 C-10.96909656 2.87712062 -10.96909656 2.87712062 -13 4 C-14.71233688 3.9129796 -16.42175406 3.75902838 -18.125 3.5625 C-19.03507812 3.46066406 -19.94515625 3.35882813 -20.8828125 3.25390625 C-21.58148438 3.17011719 -22.28015625 3.08632813 -23 3 C-23 2.67 -23 2.34 -23 2 C-20.1058144 1.46804688 -17.21028485 0.94913665 -14.3125 0.4375 C-13.49587891 0.28603516 -12.67925781 0.13457031 -11.83789062 -0.02148438 C-7.61852367 -0.75603004 -4.19116536 -1.28893273 0 0 Z " fill="#35431D" transform="translate(311,363)"/>
<path d="M0 0 C-0.66 1.32 -1.32 2.64 -2 4 C-5.63 4 -9.26 4 -13 4 C-12.67 3.01 -12.34 2.02 -12 1 C-7.9472484 0.01751476 -4.16138263 -0.08159574 0 0 Z " fill="#EDEEEE" transform="translate(258,82)"/>
<path d="M0 0 C1.90318884 2.85478326 2.4619099 4.41941308 3.125 7.6875 C3.29257812 8.49574219 3.46015625 9.30398437 3.6328125 10.13671875 C3.75398438 10.75160156 3.87515625 11.36648437 4 12 C2.35 13.32 0.7 14.64 -1 16 C-1.06668124 13.59947546 -1.12147138 11.45551768 -0.5 9.125 C0.21699176 6.07778503 0.05993212 3.11647009 0 0 Z " fill="#A6C966" transform="translate(439,184)"/>
<path d="M0 0 C5.05663427 3.42066436 7.83507897 7.91002391 11 13 C7.26127505 11.30343574 5.3711259 9.38732271 3 6 C3 5.34 3 4.68 3 4 C1.02 4.66 -0.96 5.32 -3 6 C-2.42655063 3.13275314 -2.1385485 2.1385485 0 0 Z " fill="#A0BF5E" transform="translate(380,129)"/>
<path d="M0 0 C3.20607991 2.89762325 4.84578504 6.24515625 6.81640625 10.0390625 C7.85114138 12.1483427 7.85114138 12.1483427 10 13 C10.40729228 15.32156597 10.74438677 17.6568787 11 20 C7.87961917 16.32043588 5.51980912 12.56596709 3.25 8.3125 C2.63640625 7.17425781 2.0228125 6.03601563 1.390625 4.86328125 C0 2 0 2 0 0 Z " fill="#B2CD77" transform="translate(163,294)"/>
<path d="M0 0 C0.75 1.75 0.75 1.75 1 4 C-0.9375 6.25 -0.9375 6.25 -3 8 C-1.68 8.66 -0.36 9.32 1 10 C0.01 10.495 0.01 10.495 -1 11 C-2.98 9.68 -4.96 8.36 -7 7 C-4.66666667 4.66666667 -2.33333333 2.33333333 0 0 Z " fill="#889F51" transform="translate(265,242)"/>
<path d="M0 0 C3.91402949 1.26941497 5.79072873 2.51167694 8 6 C5.525 7.485 5.525 7.485 3 9 C2.34 8.34 1.68 7.68 1 7 C1.375 4.375 1.375 4.375 2 2 C1.34 2 0.68 2 0 2 C0 1.34 0 0.68 0 0 Z " fill="#A1C45C" transform="translate(360,111)"/>
<path d="M0 0 C4.38889325 0.66498383 7.9811485 2.18757677 12 4 C9.38326241 5.40182371 6.9628331 6.60495559 4 7 C3.34 6.34 2.68 5.68 2 5 C2.66 5 3.32 5 4 5 C2.15811388 2.94729537 2.15811388 2.94729537 0 2 C0 1.34 0 0.68 0 0 Z " fill="#262827" transform="translate(329,71)"/>
<path d="M0 0 C0 0.66 0 1.32 0 2 C-4.96826315 6.31454432 -9.55230593 6.74515043 -16 7 C-13.19350765 5.1290051 -10.50039527 3.76982048 -7.4375 2.375 C-6.46683594 1.92898438 -5.49617188 1.48296875 -4.49609375 1.0234375 C-2 0 -2 0 0 0 Z " fill="#94B05D" transform="translate(323,309)"/>
<path d="M0 0 C4.54619194 1.23987053 6.76274866 2.66158455 10 6 C11.96879323 7.06011943 13.96435867 8.07470849 16 9 C16 9.66 16 10.32 16 11 C12.16784261 9.62152612 9.07256489 7.84768058 5.75 5.5 C4.87859375 4.8915625 4.0071875 4.283125 3.109375 3.65625 C1 2 1 2 0 0 Z " fill="#879E57" transform="translate(223,287)"/>
<path d="M0 0 C0.5775 0.226875 1.155 0.45375 1.75 0.6875 C-3.99350649 6.62905844 -3.99350649 6.62905844 -7.9375 6.8125 C-9.0821875 6.750625 -9.0821875 6.750625 -10.25 6.6875 C-3.34459459 -0.46452703 -3.34459459 -0.46452703 0 0 Z " fill="#9CBA5A" transform="translate(338.25,299.3125)"/>
<path d="M0 0 C0.99 0.66 1.98 1.32 3 2 C1.88147781 3.98283479 0.75498675 5.96117623 -0.375 7.9375 C-1.31472656 9.59072266 -1.31472656 9.59072266 -2.2734375 11.27734375 C-4 14 -4 14 -6 15 C-5.42482026 11.4051266 -3.74776707 8.75982496 -1.921875 5.68359375 C-0.90544138 3.82731031 -0.33443221 2.09020128 0 0 Z " fill="#9FBE64" transform="translate(397,289)"/>
<path d="M0 0 C5.61 0 11.22 0 17 0 C17 0.33 17 0.66 17 1 C15.78763672 1.19916016 15.78763672 1.19916016 14.55078125 1.40234375 C13.48214844 1.57894531 12.41351563 1.75554687 11.3125 1.9375 C10.25675781 2.11152344 9.20101563 2.28554687 8.11328125 2.46484375 C5.39750396 2.93167121 2.69875765 3.44422616 0 4 C0 2.68 0 1.36 0 0 Z " fill="#E5F0D5" transform="translate(259,86)"/>
<path d="M0 0 C0.99 1.32 1.98 2.64 3 4 C2.01 5.485 2.01 5.485 1 7 C-1.96175123 6.38722388 -3.38058783 5.74627478 -6 4 C-4.02 2.68 -2.04 1.36 0 0 Z " fill="#9EC15B" transform="translate(372,353)"/>
<path d="M0 0 C3.63 0.33 7.26 0.66 11 1 C10.67 1.66 10.34 2.32 10 3 C6.7 3 3.4 3 0 3 C-0.66 4.32 -1.32 5.64 -2 7 C-2.33 6.34 -2.66 5.68 -3 5 C-1.5625 2.375 -1.5625 2.375 0 0 Z " fill="#E5E5E5" transform="translate(151,150)"/>
<path d="M0 0 C5.02692063 0.45699278 8.14896261 2.99241748 12 6 C9 8 9 8 6.8125 7.625 C6.214375 7.41875 5.61625 7.2125 5 7 C4.87625 6.071875 4.87625 6.071875 4.75 5.125 C4.18741541 2.81562433 4.18741541 2.81562433 1.9375 1.75 C1.298125 1.5025 0.65875 1.255 0 1 C0 0.67 0 0.34 0 0 Z M8 8 C8.33 8.66 8.66 9.32 9 10 C8.34 9.67 7.68 9.34 7 9 C7.33 8.67 7.66 8.34 8 8 Z " fill="#262827" transform="translate(357,85)"/>
<path d="M0 0 C1.60495567 0.11442461 3.20898119 0.24194694 4.8125 0.375 C5.70582031 0.44460937 6.59914063 0.51421875 7.51953125 0.5859375 C10 1 10 1 13 3 C8.05 3 3.1 3 -2 3 C-1.34 2.67 -0.68 2.34 0 2 C0 1.34 0 0.68 0 0 Z " fill="#D6E5BF" transform="translate(291,82)"/>
<path d="M0 0 C1.32 0.33 2.64 0.66 4 1 C0.04 3.64 -3.92 6.28 -8 9 C-8.66 8.34 -9.32 7.68 -10 7 C-9.195625 6.731875 -8.39125 6.46375 -7.5625 6.1875 C-6.716875 5.795625 -5.87125 5.40375 -5 5 C-4.67 4.01 -4.34 3.02 -4 2 C-2.68 2 -1.36 2 0 2 C0 1.34 0 0.68 0 0 Z " fill="#303E16" transform="translate(365,355)"/>
<path d="M0 0 C6.435 2.97 6.435 2.97 13 6 C8.93434543 7.01641364 6.97556834 7.09962529 3 6 C0 2.9 0 2.9 0 0 Z " fill="#33421D" transform="translate(206,349)"/>
<path d="M0 0 C0.33 0 0.66 0 1 0 C1.05411124 2.41696872 1.09372278 4.83271787 1.125 7.25 C1.14175781 7.93191406 1.15851563 8.61382812 1.17578125 9.31640625 C1.21213482 13.0608235 1.07944349 15.82352727 -1 19 C-2.19127531 14.643098 -1.76679687 11.12042737 -1.0625 6.6875 C-0.86785156 5.43324219 -0.67320312 4.17898437 -0.47265625 2.88671875 C-0.31667969 1.93410156 -0.16070312 0.98148438 0 0 Z " fill="#3A4823" transform="translate(416,234)"/>
<path d="M0 0 C0.99 0.33 1.98 0.66 3 1 C2.34 1 1.68 1 1 1 C1 1.99 1 2.98 1 4 C0.01 4.33 -0.98 4.66 -2 5 C-1.67 6.32 -1.34 7.64 -1 9 C-3.64 9 -6.28 9 -9 9 C-6 6 -3 3 0 0 Z " fill="#B1CD72" transform="translate(216,108)"/>
<path d="M0 0 C-0.66 1.32 -1.32 2.64 -2 4 C-0.02 4.66 1.96 5.32 4 6 C3.34 6.66 2.68 7.32 2 8 C-0.97 6.35 -3.94 4.7 -7 3 C-7 2.34 -7 1.68 -7 1 C-4.53721199 -0.231394 -2.7204945 -0.07159196 0 0 Z " fill="#324020" transform="translate(349,96)"/>
<path d="M0 0 C5.19644079 1.59890486 10.06612142 3.74138003 15 6 C15 6.33 15 6.66 15 7 C7.57142857 6 7.57142857 6 4 5 C4 4.34 4 3.68 4 3 C2.35 2.67 0.7 2.34 -1 2 C-0.67 1.34 -0.34 0.68 0 0 Z " fill="#899F59" transform="translate(238,281)"/>
<path d="M0 0 C0.66 0.66 1.32 1.32 2 2 C-0.97 4.97 -3.94 7.94 -7 11 C-7.33 10.01 -7.66 9.02 -8 8 C-7.34 8 -6.68 8 -6 8 C-6 7.01 -6 6.02 -6 5 C-5.34 5 -4.68 5 -4 5 C-4 4.34 -4 3.68 -4 3 C-3.01 3 -2.02 3 -1 3 C-0.67 2.01 -0.34 1.02 0 0 Z " fill="#ABC86B" transform="translate(410,329)"/>
<path d="M0 0 C3 1 3 1 4.2109375 2.765625 C5.13471643 5.38147425 5.02641299 7.02039168 4.625 9.75 C4.51414062 10.54921875 4.40328125 11.3484375 4.2890625 12.171875 C4.19367188 12.77515625 4.09828125 13.3784375 4 14 C3.67 14 3.34 14 3 14 C2.01 9.38 1.02 4.76 0 0 Z " fill="#96B45B" transform="translate(430,178)"/>
<path d="M0 0 C0.99 0 1.98 0 3 0 C1.49087042 4.98012761 -1.55661849 8.24259942 -5 12 C-5.33 11.01 -5.66 10.02 -6 9 C-5.34 9 -4.68 9 -4 9 C-3.67 7.68 -3.34 6.36 -3 5 C-2.34 5 -1.68 5 -1 5 C-0.67 3.35 -0.34 1.7 0 0 Z " fill="#323F1C" transform="translate(404,316)"/>
<path d="M0 0 C2.97 0.495 2.97 0.495 6 1 C6 1.66 6 2.32 6 3 C6.66 3 7.32 3 8 3 C7.67 3.66 7.34 4.32 7 5 C4.525 4.01 4.525 4.01 2 3 C1.54625 3.495 1.0925 3.99 0.625 4.5 C-1 6 -1 6 -3 6 C-3 5.34 -3 4.68 -3 4 C-2.34 4 -1.68 4 -1 4 C-0.67 2.68 -0.34 1.36 0 0 Z " fill="#2C3319" transform="translate(248,252)"/>
<path d="M0 0 C1.32 0 2.64 0 4 0 C4 0.66 4 1.32 4 2 C4.61488281 2.04898438 5.22976563 2.09796875 5.86328125 2.1484375 C6.67152344 2.22320312 7.47976563 2.29796875 8.3125 2.375 C9.51326172 2.47941406 9.51326172 2.47941406 10.73828125 2.5859375 C13 3 13 3 16 5 C11.07872966 5.16682272 7.49656104 5.24828052 3 3 C3 2.34 3 1.68 3 1 C2.01 0.67 1.02 0.34 0 0 Z " fill="#97B264" transform="translate(301,83)"/>
<path d="M0 0 C0.598125 0.309375 1.19625 0.61875 1.8125 0.9375 C4.08956772 2.10209704 4.08956772 2.10209704 7 3 C8.25 4.875 8.25 4.875 9 7 C8.67 7.99 8.34 8.98 8 10 C6.66370254 8.52351062 5.33103329 7.0437367 4 5.5625 C3.2575 4.73878906 2.515 3.91507812 1.75 3.06640625 C0 1 0 1 0 0 Z " fill="#313E19" transform="translate(204,286)"/>
<path d="M0 0 C0.66 0.33 1.32 0.66 2 1 C0.68 2.32 -0.64 3.64 -2 5 C-1.67 5.66 -1.34 6.32 -1 7 C-1.639375 7.12375 -2.27875 7.2475 -2.9375 7.375 C-3.9584375 7.684375 -3.9584375 7.684375 -5 8 C-5.33 8.66 -5.66 9.32 -6 10 C-6.33 8.68 -6.66 7.36 -7 6 C-4.69 4.02 -2.38 2.04 0 0 Z " fill="#31401C" transform="translate(204,270)"/>
<path d="M0 0 C0.66 0.33 1.32 0.66 2 1 C1.67 1.66 1.34 2.32 1 3 C1.66 3.66 2.32 4.32 3 5 C-1.455 5.495 -1.455 5.495 -6 6 C-6 5.34 -6 4.68 -6 4 C-4.36368108 2.95107762 -2.69514137 1.95093297 -1 1 C-0.67 0.67 -0.34 0.34 0 0 Z " fill="#A9C76A" transform="translate(349,368)"/>
<path d="M0 0 C0.66 0.33 1.32 0.66 2 1 C0.33248852 4.94139078 -2.22710649 7.7892812 -5 11 C-5.66 10.67 -6.32 10.34 -7 10 C-5.55079575 6.61852341 -3.62738345 4.54262915 -1 2 C-0.67 1.34 -0.34 0.68 0 0 Z " fill="#A3C167" transform="translate(386,307)"/>
<path d="M0 0 C3 1 3 1 4.16796875 2.9609375 C4.50441406 3.75757813 4.84085937 4.55421875 5.1875 5.375 C5.70376953 6.56222656 5.70376953 6.56222656 6.23046875 7.7734375 C7 10 7 10 7 13 C6.34 13 5.68 13 5 13 C4.16209211 11.21046815 3.32980604 9.41830305 2.5 7.625 C1.80390625 6.12839844 1.80390625 6.12839844 1.09375 4.6015625 C0 2 0 2 0 0 Z " fill="#2C3817" transform="translate(400,155)"/>
<path d="M0 0 C-0.33 0.99 -0.66 1.98 -1 3 C-3.31 3.33 -5.62 3.66 -8 4 C-8.33 4.99 -8.66 5.98 -9 7 C-9.99 6.67 -10.98 6.34 -12 6 C-9.1490916 2.47828963 -4.56486714 0 0 0 Z " fill="#AECC70" transform="translate(242,96)"/>
<path d="M0 0 C2.64 0 5.28 0 8 0 C8 0.66 8 1.32 8 2 C3.05 3.485 3.05 3.485 -2 5 C-2 3 -2 3 0 1 C0 0.67 0 0.34 0 0 Z " fill="#F7FDEC" transform="translate(251,88)"/>
<path d="M0 0 C6.37675351 6.20440882 6.37675351 6.20440882 8 9 C7.5703125 11.12109375 7.5703125 11.12109375 7 13 C5.82786955 11.21190303 4.66244474 9.41940875 3.5 7.625 C2.8503125 6.62726563 2.200625 5.62953125 1.53125 4.6015625 C0 2 0 2 0 0 Z " fill="#9AA879" transform="translate(412,137)"/>
<path d="M0 0 C2.31 0 4.62 0 7 0 C3.55384615 4.8 3.55384615 4.8 0.75 5.8125 C-0.11625 5.9053125 -0.11625 5.9053125 -1 6 C-0.67 4.02 -0.34 2.04 0 0 Z " fill="#A1C164" transform="translate(203,265)"/>
<path d="M0 0 C-0.45196245 1.60597325 -0.91182327 3.20972508 -1.375 4.8125 C-1.63023437 5.70582031 -1.88546875 6.59914062 -2.1484375 7.51953125 C-3 10 -3 10 -5 13 C-4.88652381 11.02013918 -4.7589065 9.04108402 -4.625 7.0625 C-4.55539063 5.96035156 -4.48578125 4.85820312 -4.4140625 3.72265625 C-4.27742187 2.82417969 -4.14078125 1.92570313 -4 1 C-2 0 -2 0 0 0 Z " fill="#F4FDE1" transform="translate(161,176)"/>
<path d="M0 0 C3.63 1.65 7.26 3.3 11 5 C10.34 5.66 9.68 6.32 9 7 C6.69 6.01 4.38 5.02 2 4 C2 3.34 2 2.68 2 2 C1.34 2 0.68 2 0 2 C0 1.34 0 0.68 0 0 Z " fill="#2D3918" transform="translate(234,296)"/>
<path d="M0 0 C-1.44472346 3.80881639 -3.32603071 5.29742886 -7 7 C-7.99 6.67 -8.98 6.34 -10 6 C-8.90398831 4.99106869 -7.79786082 3.99311775 -6.6875 3 C-6.07261719 2.443125 -5.45773437 1.88625 -4.82421875 1.3125 C-3 0 -3 0 0 0 Z " fill="#839C50" transform="translate(284,228)"/>
<path d="M0 0 C0.33 0 0.66 0 1 0 C0.75 3.375 0.75 3.375 0 7 C-2.0625 8.4375 -2.0625 8.4375 -4 9 C-2.94124926 5.59687262 -1.99097846 2.98646769 0 0 Z " fill="#AECC6F" transform="translate(169,160)"/>
<path d="M0 0 C2.95898184 1.373813 5.40617043 3.03226722 8 5 C8.33 5 8.66 5 9 5 C9 6.65 9 8.3 9 10 C5.73991357 6.83047153 2.77762123 3.60062011 0 0 Z " fill="#2F3D19" transform="translate(373,120)"/>
<path d="M0 0 C0 0.99 0 1.98 0 3 C-1.98 3.33 -3.96 3.66 -6 4 C-6 4.99 -6 5.98 -6 7 C-7.32 6.34 -8.64 5.68 -10 5 C-8.71186658 4.16121545 -7.41936744 3.32913217 -6.125 2.5 C-5.40570313 2.0359375 -4.68640625 1.571875 -3.9453125 1.09375 C-2 0 -2 0 0 0 Z " fill="#B3CF78" transform="translate(229,102)"/>
<path d="M0 0 C4.875 4.75 4.875 4.75 6 7 C4.68 7.33 3.36 7.66 2 8 C0.23537317 4.91190305 0 3.76687864 0 0 Z " fill="#9CB963" transform="translate(201,283)"/>
<path d="M0 0 C0 0.66 0 1.32 0 2 C0.99 2.33 1.98 2.66 3 3 C-0.50776784 4.60355101 -3.14354879 5.22036864 -7 5 C-2.25 0 -2.25 0 0 0 Z " fill="#8BA650" transform="translate(306,253)"/>
<path d="M0 0 C0.66 0.33 1.32 0.66 2 1 C-0.87164566 3.70272533 -2.30991841 4.94791837 -6.3125 5.25 C-7.199375 5.1675 -8.08625 5.085 -9 5 C-6.06626269 3.04417512 -3.21783702 1.43775696 0 0 Z " fill="#3C5112" transform="translate(321,273)"/>
<path d="M0 0 C-2.35277269 2.72426311 -4.62496331 3.8141763 -8 5 C-8 4.01 -8 3.02 -8 2 C-4.77208445 -0.1519437 -3.71599191 -0.20086443 0 0 Z " fill="#8CA754" transform="translate(322,272)"/>
<path d="M0 0 C-2.64 1.98 -5.28 3.96 -8 6 C-8 4.35 -8 2.7 -8 1 C-3.375 -1.125 -3.375 -1.125 0 0 Z " fill="#9AB960" transform="translate(237,244)"/>
<path d="M0 0 C-1.33332095 3.99996286 -3.4957827 4.83782337 -7 7 C-7.33 6.34 -7.66 5.68 -8 5 C-7.67 4.34 -7.34 3.68 -7 3 C-6.01 3 -5.02 3 -4 3 C-4 2.34 -4 1.68 -4 1 C-2 0 -2 0 0 0 Z " fill="#9DBC63" transform="translate(244,236)"/>
<path d="M0 0 C-2 2 -2 2 -4.9375 2.125 C-5.948125 2.08375 -6.95875 2.0425 -8 2 C-8.99 2 -9.98 2 -11 2 C-7.49890112 -1.50109888 -4.63591413 -1.15897853 0 0 Z " fill="#353535" transform="translate(239,66)"/>
<path d="M0 0 C0.66 0.33 1.32 0.66 2 1 C-0.475 4.465 -0.475 4.465 -3 8 C-4.03348696 4.89953913 -4.17755913 3.94389782 -3 1 C-2.01 0.67 -1.02 0.34 0 0 Z " fill="#AAC86B" transform="translate(422,314)"/>
<path d="M0 0 C0.66 0.33 1.32 0.66 2 1 C2 3 2 3 0.625 4.625 C-1 6 -1 6 -3 6 C-3.33 6.99 -3.66 7.98 -4 9 C-4.66 8.67 -5.32 8.34 -6 8 C-4.02 5.36 -2.04 2.72 0 0 Z " fill="#384720" transform="translate(389,307)"/>
<path d="M0 0 C0 0.99 0 1.98 0 3 C-2.5654594 5.5654594 -4.47686668 5.54046087 -8 6 C-5.51047079 3.33264727 -3.36591866 1.44253657 0 0 Z " fill="#879F4F" transform="translate(320,276)"/>
<path d="M0 0 C0.99 0.33 1.98 0.66 3 1 C-0.96 4.465 -0.96 4.465 -5 8 C-5.66 7.67 -6.32 7.34 -7 7 C-4.69 4.69 -2.38 2.38 0 0 Z " fill="#252525" transform="translate(167,100)"/>
<path d="M0 0 C2.475 0.495 2.475 0.495 5 1 C4.67 2.65 4.34 4.3 4 6 C3.34 6 2.68 6 2 6 C2 5.01 2 4.02 2 3 C1.34 3 0.68 3 0 3 C0 2.01 0 1.02 0 0 Z " fill="#A0C35E" transform="translate(318,88)"/>
<path d="M0 0 C-5.75 4 -5.75 4 -8 4 C-7.67 2.68 -7.34 1.36 -7 0 C-3.98968256 -0.93423645 -3.13349732 -1.04449911 0 0 Z " fill="#9BB962" transform="translate(360,338)"/>
<path d="M0 0 C0.99 0.33 1.98 0.66 3 1 C-0.465 3.97 -0.465 3.97 -4 7 C-4 6.01 -4 5.02 -4 4 C-3.34 4 -2.68 4 -2 4 C-2 3.01 -2 2.02 -2 1 C-1.34 0.67 -0.68 0.34 0 0 Z " fill="#313E17" transform="translate(390,334)"/>
<path d="M0 0 C0.66 0.33 1.32 0.66 2 1 C-0.84936103 4.00765886 -3.23511958 6.27845212 -7 8 C-6.02133662 6.85373678 -5.04205413 5.70800212 -4.0625 4.5625 C-3.51722656 3.92441406 -2.97195313 3.28632813 -2.41015625 2.62890625 C-1.63204305 1.73008851 -0.84063472 0.84063472 0 0 Z " fill="#A2C065" transform="translate(396,331)"/>
<path d="M0 0 C0.33 0.66 0.66 1.32 1 2 C0.00390625 3.9453125 0.00390625 3.9453125 -1.4375 6.125 C-1.91058594 6.84945313 -2.38367188 7.57390625 -2.87109375 8.3203125 C-3.24363281 8.87460937 -3.61617188 9.42890625 -4 10 C-5 8 -5 8 -4.25 5 C-3 2 -3 2 0 0 Z " fill="#AECB6E" transform="translate(429,303)"/>
<path d="M0 0 C-1 3 -1 3 -2.875 4.25 C-5 5 -5 5 -8 4 C-2.25 0 -2.25 0 0 0 Z " fill="#8CA453" transform="translate(334,297)"/>
<path d="M0 0 C0.99 0 1.98 0 3 0 C2.67 3.3 2.34 6.6 2 10 C1.67 10 1.34 10 1 10 C0.67 6.7 0.34 3.4 0 0 Z " fill="#9CBA5C" transform="translate(434,194)"/>
<path d="M0 0 C1.65 0.33 3.3 0.66 5 1 C4.01 2.485 4.01 2.485 3 4 C1.68 3.67 0.36 3.34 -1 3 C-0.67 2.01 -0.34 1.02 0 0 Z " fill="#FAFCFB" transform="translate(273,81)"/>
<path d="M0 0 C0.66 0.33 1.32 0.66 2 1 C1.67 2.98 1.34 4.96 1 7 C0.01 7 -0.98 7 -2 7 C-1.34 4.69 -0.68 2.38 0 0 Z " fill="#36441F" transform="translate(408,271)"/>
<path d="M0 0 C0.66 0.33 1.32 0.66 2 1 C1.67 2.32 1.34 3.64 1 5 C-1.31 5.33 -3.62 5.66 -6 6 C-4 4 -2 2 0 0 Z " fill="#303F1C" transform="translate(264,220)"/>
<path d="M0 0 C-5.41538462 3.07692308 -5.41538462 3.07692308 -8.375 2.6875 C-9.179375 2.3471875 -9.179375 2.3471875 -10 2 C-3.375 -1.125 -3.375 -1.125 0 0 Z " fill="#212121" transform="translate(227,69)"/>
</svg>
